<?xml version='1.0' encoding='utf-8'?>
<svg xmlns="http://www.w3.org/2000/svg" version="1.1" viewBox="0 0 1024 1024"> <path d="m1024 0v1024h-1024v-1024h1024zm-176.94 113.89q-26.51 0.99-48.07 16.36a1.72 1.72 0 0 0-0.71 1.57q2.01 21.23 11.19 40.66c10.17 21.5 27.14 38.16 51.29 41.78q12.91 1.94 26.75 1.58a5.03 4.48-37 0 1 0.98 0.08q0.88 0.17 6.46 1.29 7.79 1.57 14.51 5.69l-0.09 1.16a1.16 1.15-17.7 0 1-0.41 0.79q-4.65 4.04-9.3 6.21-6.86-2.92-11.6-2.9-12.32 0.03-20.04-0.45c-23.07-1.45-43.83-12.9-57.96-31.18q-7.03-9.09-10.33-15.76c-2.26-4.56-6.28-13.28-7.96-19.95q-3.17-12.58-4.73-19.5a0.48 0.48 0 0 0-0.81-0.22q-23.26 24.5-24.83 58.64-0.77 16.75 3.93 30.51 3.94 13.28 10.99 23.16c16.78 23.49 39.41 37.48 68.43 39.89q7.03 0.59 15.05-0.25 33.91-3.55 56.86-27.01 3.16-3.18 5.82-6.34 4.06-4.84 7.33-10.1 4.38-7.98 6.5-13.79 7.56-20.76 5.36-43.75-0.58-6.05-3.46-14.39-0.43-3.26-3.21-9.44-14.78-32.77-47.14-47.08-17.4-7.7-38.12-7.3l-2.68 0.04zm-745.53 44.04q-10.1 2.85-19.68 6.88-4.57 1.91-7.92 4.62-4.81 3.88-6.33 8.95-3.95 13.27-7.23 26.02c-4.41 17.12-7.63 27.77-11.34 43.62q-1.54 6.57 2.72 11.2c5.76 6.26 15.19 10.26 23.27 12.69 27.53 8.92 56.49 13.09 87.24 14.11q21.59 0.71 42.73 0.09 21.06-0.62 33.91-2.77 29.68-4.95 65.04-13.89c9.25-2.34 20.4-9.57 17.36-20.96q-7.43-27.79-14.34-54.12-1.71-6.51-3.83-14.1-1.43-7.05-7.82-11.33-8.97-6.01-21.7-9.24-1.68-1.65-3.72-3.6c-2.33-2.22-7.43-3.83-11.21-3.65q-4.03 0.2-8.01 1.22a0.78 0.78 0 0 1-0.89-0.43c-2.57-5.46-6.04-11.84-10.4-15.47q-10.76-8.98-24.74-1.69a0.67 0.66 60.9 0 1-0.87-0.25q-2.3-3.8-5.64-7.21c-7.85-8.04-19.85-7.13-29.27-2.23q-3.68 1.91-7.82 4.37a0.94 0.93 44.5 0 1-0.95 0q-1.9-1.08-5.2-2.86c-10.11-5.43-22.26-4.79-30.21 4.08-3.89 4.36-6.34 9.37-8.52 14.49a0.8 0.8 0 0 1-0.75 0.49q-4.84-0.1-6.91 0.05c-7.83 0.55-12.65 4.74-16.97 10.92zm485.13 126.19q-18.05 3.16-33.51 12.39c-8.45 5.05-16.61 12.44-23.77 18.37q-2.53 2.1-26.11 23.4-5.15 4.65-11.33 12.43c-8.8 11.08-10.52 22.76-6.86 36.27q8.11 29.95 27.02 54.7 4.49 5.88 10.2 10.74c6.34 5.41 16.47 8.76 23.01 1.87 4.95-5.21 6.76-11.88 8.55-18.85q2.74 4.17 4.81 8.62 1.32 2.86 2.75 4.92 1.75 2.52 3.21 4.68-4.26 10.27-8.72 25.17-9.6 32.09-14.97 59.7-3.59 19.04-3.83 38.41c-0.03 3.19-0.66 6.12-1 9.3q-6.88 32.47-9.3 65.51-1.53 20.86 1.23 40.95a1.07 1.06 75.1 0 1-0.65 1.13q-7.8 3.21-11.39 10.85c-4.65 9.88-4.69 28.17 9.11 31.02q6.77 1.41 17.44 0.49 4.64 0.49 7.87 0.56c12.92 0.27 30.95 0.8 46.74 0.27q7.46-0.25 14.82-0.31l15.13-0.07q1.45 0.36 3.68 0.4 8.85 0.17 21.2-0.28l3.44-0.01q2.34 0.33 4.81 0.27 11.91-0.28 22.17 0.43 5.26 0.37 25.55-0.62l18.5 0.12q12.58 0.82 18.54 0.47 5.94-0.35 7.84-0.33 6.1 0.05 7.82-0.04c12.7-0.73 24.58-0.28 37.43-0.22q5.39 0.02 9.08-1.17 4.71-1.54 7.94-4.53 4-5.18 8.75-7.25 18.35-3.69 31.54-12.46c19.27-12.8 33.13-34.76 37.26-58.48 4.56-26.18 3.67-61.75-14.16-83.19-2.27-2.72-7.12-6.48-8.81-1.07q-0.79 2.54-0.8 2.78c-2.05 26.93-14.09 49.96-33.69 68.36a0.41 0.41 0 0 1-0.69-0.25c-2.92-23.7-10.28-44.4-23.61-64.37-10.91-16.35-23.21-30.09-36.42-44.04-4.44-4.68-9.04-10.33-13.76-15.66q-8.8-9.95-16.1-21.55-11.06-17.93-15.19-38.4 0.44-0.49 0.92-1.68 0.44-1.1 0.82-1.75 3.55-6.04 7.99-12.01 0.32 5.08 0.55 9.32c0.71 13.13 7.12 29 23.72 25.34q6.29-1.39 10.38-4.5 11.81-9 20.95-21.77 12.67-17.7 19.63-34.86 2.25-5.55 3.5-11.29 2.47-11.43-2.19-21.82-4.04-8.98-11.37-17.84-11.01-13.29-25.46-29.68-3.48-3.95-5.11-5.56c-4.7-4.62-8.94-9.45-13.7-13.32-9.3-7.54-20.34-13.54-32.26-16.11q-1.36-0.06-2.4-0.66c-5.05-2.95-11.72-7.87-17.47-10.74q-12.66-6.31-25.93-8.99-0.26-0.97-2.79-1.15-5.13-0.38-24-2.51-6.13-0.69-17.4-0.46-0.31-0.28-1.05-0.29-24.89-0.02-47.31 10.46-0.71 0.33-2.79 0.44zm-198.12 68.9q-3.33-1.21-6.85-2.67c-5.26-2.16-11.89-4.45-16.24-5.28-19.07-3.65-38.7 0.12-56.42 8.61a2.07 2.07 0 0 1-0.95 0.21l-0.92-0.02c-15.28-14.64-29.6-25.46-46.39-33.61-8.28-4.01-20.29-7.56-25.13 3.29-3.68 8.23-4.07 17.87-4.01 27.2q0.22 31.69 12.74 62.73-5.35 11.41-7.72 24.68-1.45 8.12-0.44 16.44l-8.22 1.88a3.1 3.07 77.7 0 0-2.32 3.66l0.02 0.12a3.13 3.13 0 0 0 3.6 2.44l8.31-1.45 7.07 16.35-11.18 6.43a2.7 2.58 59.3 0 0-0.85 3.69l0.05 0.1a2.98 2.93 61.3 0 0 3.8 1.14l11.55-5.63 8.79 8.26q3.73 7.39 12.17 11.68 0.54 0.27 0.63 1.25-4.11 13.38-5.23 27.3a3.84 3.77-29.9 0 1-0.39 1.39c-7.44 14.66-16.98 26.84-27.61 39.86-18.6 22.78-34.01 45.77-36.58 74.46q-0.46 5.08-0.87 10.46l-0.32 3.05q-4.07-4.73-5.47-7.72-11.7-24.94-6.4-52.05c2.14-10.98 7.92-22.4 17.53-28.49 4.18-2.66 10.63-3.96 15.15-6.1 9.55-4.53 12.19-14.7 8.99-24.61-2.34-7.25-9.78-11.55-17.65-12.76-29.73-4.57-53.26 17.35-63.47 43.28q-6.36 16.14-8.01 34.92-3.04 34.55 8.91 65.2c4.74 12.17 11.82 23.94 20.48 32.87q17.76 18.32 44.38 21.5l3.62 0.62a1.97 1.96 69.7 0 1 0.91 0.42q5.98 4.95 13.71 6.79 2.82 1.62 5.46 1.61 29.11-0.08 58.22 0 2.59 0.01 5.12-0.63l33.7-0.07q1.99 0.79 5.69 0.78 21.45-0.06 42.74-0.17 5.98-0.84 12.24-0.28 2.79 0.76 5.68 0.71 24.01-0.44 48.02-0.48 1.42-0.01 3.89-0.41 15.27 0.7 21.66-0.05 5.45-0.64 7-1.14 9.83-3.19 10.58-14.35c0.73-10.94-3.6-21.79-14.25-26.11a0.93 0.93 0 0 1-0.56-1c0.52-3.13 1.46-7.37 1.74-10.82q1.97-24.64-4.82-48.46-4.54-15.93-5.62-18.84-4.42-11.85-9.21-24.19-1.07-9.37-2.66-19.2-2.64-16.32-7.12-32.23-2.99-10.6-6.16-20.63l-6.36-17.96a0.51 0.51 0 0 0-0.85-0.17q-1.61 1.72-3.81 2.44 13-10.1 21.99-22.57l11.24 5.47a2.9 2.84-63.3 0 0 3.79-1.3l0.05-0.1a2.84 2.8-62.3 0 0-1.15-3.79l-11.07-5.89q3.93-7.9 6.28-16.18l9.05 1.14a3.11 3.08-80.2 0 0 3.4-2.42l0.02-0.11a2.92 2.91-78 0 0-2.25-3.47q-4.58-0.95-8.68-1.43-0.25-0.03-0.56-0.3-0.28-0.24-0.28-0.52c0.43-14.84-3.43-26.8-9.69-40.22a2.56 2.52 39.6 0 1-0.17-1.65l1.22-5.32q11.09-32.89 8.58-67.57-0.61-8.41-3.38-15.52c-6.41-16.46-26.16-4.85-35.4 1.13q-19.25 12.47-36.08 30.38zm308.87 458.94 0.11 32.88a5.76 5.65-53.9 0 0 0.24 1.64c3.72 12.41 18.4 19.23 29.5 23.23q7.96 2.86 20.76 5.66 24.25 5.32 50.23 6.82 0.1-0.06 0.12 0.36a1.38 1.37-31.9 0 1-0.18 0.75q-9.7 17.02-0.88 33.76 9.03 17.16 27.98 19.2 17.64 1.89 30.2-10.02c12.31-11.66 13.28-29.6 5.98-43.77a0.43 0.41-43.6 0 1 0.02-0.42q0.09-0.15 0.23-0.24 16.03-1.16 31.95-3.47 19.57-2.84 38.09-8.72c5.35-1.7 9.74-3.78 14.95-5.91q1.61-0.66 8.51-5.25c5.91-3.93 11.02-10.58 10.88-17.96q-0.31-16.27 0.29-32.54 0.07-5.08-0.13-10.17c-0.12-3.31-0.77-5-2.58-7.49q-2.39-3.3-6.83-6.37c-9.13-6.32-19.69-10.49-30.48-13.28q-32.29-8.37-65.35-10.22c-42.36-2.37-85.06 0.28-126.06 11.47-5.39 1.47-11.91 4.05-16.13 5.93q-8.16 3.65-16.45 10.56-4.92 4.09-5.19 10.11-0.22 4.83 0.22 13.46zm-574.62-24.13q-3.91-7.85-10.42-12.25c-13.53-9.13-26.67-5-36.22 6.61-10.14 12.33-13.32 27.29 0.08 38.84q1.38 1.19 4.79 3.33-0.02 0.25-0.2 0.47-11.5 14.15-19.93 30.61-3.12 1.71-5.52 3.92c-4.12 3.81-5.41 9.43-3.67 14.84q2.51 7.79 11.31 9.68 2.03 0.44 6.96 0.03 5.92 0.35 11.68 0.71 5.02 0.32 11.7 0.51 12.77 0.37 30.15 1.11 11.38 0.49 60.83 0.5c17.71 0.01 37.2-0.87 52.55-1.88q18.28-1.2 37.36-4.62 7.75-1.39 15.73-4.25 10.72-3.84 16.32-12.34 5.82-0.46 14.7 0.33c13.26 1.18 22.54 2.07 32.64 6.13q3.62 1.46 5.81 3.68c4.19 4.25 1.47 9.62-2.69 12.49-6.75 4.66-16.44 7.1-24.27 8.43-19.33 3.29-40.73 3.94-59.72 3.86q-3.53-0.01-6.21 0.94c-2.33 0.83-4.55 3.7-3.05 6.23 1.53 2.57 4.62 2.97 7.47 3.09q28.1 1.14 53.52-1.34c14.04-1.37 30.34-4.09 42.32-12.67 8.03-5.74 12.16-14.98 8.35-24.42-3.09-7.67-13.12-13.43-20.78-15.82-14.77-4.61-30.1-5.88-45.68-5.49q-0.25-6.64-2.01-12.8c-3.22-11.22-8.29-21.24-15.93-30.4q-17.63-21.14-42.16-31.65c-28.53-12.22-62.17-12.14-91.84-2.21q-17.95 6-33.97 15.8z" fill="#fff"/> <path d="m849.74 113.85-2.68 0.04 2.68-0.04z" fill="#e9d8c5"/> <path d="m938.21 177.67q-4.57 15.67-12.39 28.46-2.63 4.3-6.84 8.68-3.85 3.99-7.79 7.89-0.32 0.3-0.52 0.89l-1.21-0.69q-6.72-4.12-14.51-5.69-5.58-1.12-6.46-1.29a5.03 4.48-37 0 0-0.98-0.08q-13.84 0.36-26.75-1.58c-24.15-3.62-41.12-20.28-51.29-41.78q-9.18-19.43-11.19-40.66a1.72 1.72 0 0 1 0.71-1.57q21.56-15.37 48.07-16.36l2.68-0.04q20.72-0.4 38.12 7.3 32.36 14.31 47.14 47.08 2.78 6.18 3.21 9.44z" fill="#feca01"/> <path d="m273.61 159.7 4.61 9.13a2.11 2.06-88.2 0 0 0.78 0.85c3.36 2.08 6.19 3.51 7.75 6.64 4.74 9.57-28.93 16.01-33.63 16.82-39.25 6.81-80.3 7.45-120.37 2.58-4.05-0.49-59.44-8.42-46.99-20.98 3.46-3.49 7.93-5.3 11.81-7.17a2.63 2.6-4.3 0 0 1.35-1.55l2.61-8.09c4.32-6.18 9.14-10.37 16.97-10.92q2.07-0.15 6.91-0.05a0.8 0.8 0 0 0 0.75-0.49c2.18-5.12 4.63-10.13 8.52-14.49 7.95-8.87 20.1-9.51 30.21-4.08q3.3 1.78 5.2 2.86a0.94 0.93 44.5 0 0 0.95 0q4.14-2.46 7.82-4.37c9.42-4.9 21.42-5.81 29.27 2.23q3.34 3.41 5.64 7.21a0.67 0.66 60.9 0 0 0.87 0.25q13.98-7.29 24.74 1.69c4.36 3.63 7.83 10.01 10.4 15.47a0.78 0.78 0 0 0 0.89 0.43q3.98-1.02 8.01-1.22c3.78-0.18 8.88 1.43 11.21 3.65q2.04 1.95 3.72 3.6zm-80.82-4.15q-2.02-2.19-3.15-2.7-6.11-2.72-10.18-4.84c-19.66-10.25-13.86 22.35-5.41 26.98 4.26 2.34 15.67-8.62 18.25-11.43 2.24-2.44 2.92-5.36 0.49-8.01zm20.78 20.39q1.78 4.06 6.85 5.94c6.74 2.49 22.05 5.25 23.55-5.12q0.61-4.21-0.47-9.08c-1.58-7.13-7.97-9.26-14.24-5.91q-1.19 0.63-3.86 2.73a4.43 4.42-70.4 0 1-1.72 0.82c-4.6 1.06-10.4 4.14-10.34 9.51a2.8 2.77-57 0 0 0.23 1.11zm-90.78 3.96c3.43 5.68 16.91 4.47 21.91 3.86q4.89-0.6 4.88-5.04c-0.01-5.16-4.4-11.26-9.81-12.7-5.19-1.38-12.8 4.57-15.73 8.23q-1.54 1.92-1.53 4.65a1.93 1.92-60.8 0 0 0.28 1z" fill="#521d02"/> <path d="m899.66 231.06q0.48 0.41 1.15 0.63-6.32 3.1-12.71 6.37-8.57 4.38-12.84 6.03-14.07 5.41-29.76 7.66-25.61 3.68-50.11-4.16-14.9-4.77-30.06-17.34-4.7-13.76-3.93-30.51 1.57-34.14 24.83-58.64a0.48 0.48 0 0 1 0.81 0.22q1.56 6.92 4.73 19.5c1.68 6.67 5.7 15.39 7.96 19.95q3.3 6.67 10.33 15.76c14.13 18.28 34.89 29.73 57.96 31.18q7.72 0.48 20.04 0.45 4.74-0.02 11.6 2.9z" fill="#feca01"/> <path d="m192.79 155.55c2.43 2.65 1.75 5.57-0.49 8.01-2.58 2.81-13.99 13.77-18.25 11.43-8.45-4.63-14.25-37.23 5.41-26.98q4.07 2.12 10.18 4.84 1.13 0.51 3.15 2.7z" fill="#b06713"/> <path d="m101.53 157.93-2.61 8.09a2.63 2.6-4.3 0 1-1.35 1.55c-3.88 1.87-8.35 3.68-11.81 7.17-12.45 12.56 42.94 20.49 46.99 20.98 40.07 4.87 81.12 4.23 120.37-2.58 4.7-0.81 38.37-7.25 33.63-16.82-1.56-3.13-4.39-4.56-7.75-6.64a2.11 2.06-88.2 0 1-0.78-0.85l-4.61-9.13q12.73 3.23 21.7 9.24 6.39 4.28 7.82 11.33-9.06 12.32-22.29 16.85-21.51 7.37-48.11 10.52-19.15 2.27-53.98 2.3-20.47 0.01-39.97-2.33-20.63-2.47-40.62-8.01-2.17-0.61-5.39-1.95-9.52-3.03-17-8.67-4.99-3.76-8.17-10.6 1.52-5.07 6.33-8.95 3.35-2.71 7.92-4.62 9.58-4.03 19.68-6.88z" fill="#f84d2e"/> <path d="m213.34 174.83c-0.06-5.37 5.74-8.45 10.34-9.51a4.43 4.42-70.4 0 0 1.72-0.82q2.67-2.1 3.86-2.73c6.27-3.35 12.66-1.22 14.24 5.91q1.08 4.87 0.47 9.08c-1.5 10.37-16.81 7.61-23.55 5.12q-5.07-1.88-6.85-5.94a2.8 2.77-57 0 1-0.23-1.11z" fill="#b06713"/> <path d="m122.51 178.9q-0.01-2.73 1.53-4.65c2.93-3.66 10.54-9.61 15.73-8.23 5.41 1.44 9.8 7.54 9.81 12.7q0.01 4.44-4.88 5.04c-5 0.61-18.48 1.82-21.91-3.86a1.93 1.92-60.8 0 1-0.28-1z" fill="#b06713"/> <path d="m938.21 177.67q2.88 8.34 3.46 14.39 2.2 22.99-5.36 43.75-2.12 5.81-6.5 13.79-0.71 0.71-1.29 0.89a0.56 0.56 0 0 1-0.71-0.43q-2.51-12.88-11.85-22.15c-1.56-1.54-3.56-2.78-5.29-4.32q0.2-0.59 0.52-0.89 3.94-3.9 7.79-7.89 4.21-4.38 6.84-8.68 7.82-12.79 12.39-28.46z" fill="#e7ab00"/> <path d="m67.6 178.38q3.18 6.84 8.17 10.6 7.48 5.64 17 8.67-4.45 16.45-8.23 33.03c-1.17 5.12-2.97 10.31-3.98 15.59q-0.94 4.89-2.63 11.77t-2.91 13.87c-8.08-2.43-17.51-6.43-23.27-12.69q-4.26-4.63-2.72-11.2c3.71-15.85 6.93-26.5 11.34-43.62q3.28-12.75 7.23-26.02z" fill="#ab0802"/> <path d="m303.13 180.27q2.12 7.59 3.83 14.1 6.91 26.33 14.34 54.12c3.04 11.39-8.11 18.62-17.36 20.96q-35.36 8.94-65.04 13.89-12.85 2.15-33.91 2.77-21.14 0.62-42.73-0.09c-30.75-1.02-59.71-5.19-87.24-14.11q1.22-6.99 2.91-13.87t2.63-11.77c1.01-5.28 2.81-10.47 3.98-15.59q3.78-16.58 8.23-33.03 3.22 1.34 5.39 1.95 19.99 5.54 40.62 8.01 19.5 2.34 39.97 2.33 34.83-0.03 53.98-2.3 26.6-3.15 48.11-10.52 13.23-4.53 22.29-16.85z" fill="#e22c0e"/> <path d="m909.46 222.9 1.21 0.69c1.73 1.54 3.73 2.78 5.29 4.32q9.34 9.27 11.85 22.15a0.56 0.56 0 0 0 0.71 0.43q0.58-0.18 1.29-0.89-3.27 5.26-7.33 10.1-2.66 3.16-5.82 6.34c-0.63-4.09-0.66-8.47-1.29-12.05-1.75-10.08-4.95-17.31-14.56-22.3q-0.67-0.22-1.15-0.63 4.65-2.17 9.3-6.21a1.16 1.15-17.7 0 0 0.41-0.79l0.09-1.16z" fill="#fef3d9"/> <path d="m900.81 231.69c9.61 4.99 12.81 12.22 14.56 22.3 0.63 3.58 0.66 7.96 1.29 12.05q-22.95 23.46-56.86 27.01-8.02 0.84-15.05 0.25c-29.02-2.41-51.65-16.4-68.43-39.89q-7.05-9.88-10.99-23.16 15.16 12.57 30.06 17.34 24.5 7.84 50.11 4.16 15.69-2.25 29.76-7.66 4.27-1.65 12.84-6.03 6.39-3.27 12.71-6.37z" fill="#e7ab00"/> <path d="m637.81 273.51q1.36 33.92-5.91 63.58-3.94 16.1-15.89 30.5c-4.42 5.34-9.95 8.62-15.61 12.77q-3.86 2.84-10.83 6.48-16.94 8.86-33.42 19.36 0.26-0.97 0.2-2.14-0.07-1.43-0.03-2.13 2.17-32.88 11.55-64.59 2.62-8.85 5.52-16.22 3.93-10.01 6.25-15.98 3.48-8.91 7.06-16.29 2.14-4.43-0.04-4.73 2.08-0.11 2.79-0.44 22.42-10.48 47.31-10.46 0.74 0.01 1.05 0.29zm-37.902 69.505a15.08 11.64-85.1 0 0-12.886 14.031 15.08 11.64-85.1 0 0 10.309 16.019 15.08 11.64-85.1 0 0 12.886-14.031 15.08 11.64-85.1 0 0-10.309-16.019z" fill="#b06713"/> <path d="m682 277.63-6.59-1a0.56 0.54-81 0 0-0.62 0.46c-3.16 20.38-5.41 38.71-5.45 57.9-0.03 18.06 5.25 38.88 18.71 51.46 10.19 9.53 21.81 16.07 34.68 22.8 4.49 2.35 8.79 5.37 13.03 8.29l3.68 2.95a1.05 1.04 20.3 0 1 0.4 0.86l-0.68 18.76q-4.44 5.97-7.99 12.01-0.38 0.65-0.82 1.75-0.48 1.19-0.92 1.68-11.33 12.91-24.43 21.71-6.15 4.14-13.98 8.35a0.61 0.61 0 0 0-0.29 0.72q4.03 12.82 5.36 26.17c2.42 21.57 0.13 44.23-7.91 64.42q-4.01 10.06-9.41 19.38c-4.94 8.51-11.24 15.7-19.48 24.79-2.75 3.03-3.88 5.38-4.73 9.22q-2.86 12.99-4.45 21.58-21.9-14.38-36.24-24.76-4.87-3.53-11.17-10.66-3.27-3.68-4.87-6.29-1.84-3.01-5.26-10.37-2.5-5.38-4.09-10.87c-7.31-25.25-7.45-52.71-4.27-78.65q1.8-15.34 5.68-30.2a0.88 0.88 0 0 0-0.33-0.92q-14.23-10.26-24.93-25.51-1.46-2.16-3.21-4.68-1.43-2.06-2.75-4.92-2.07-4.45-4.81-8.62 2.3-14.35 2.29-29.24 16.48-10.5 33.42-19.36 6.97-3.64 10.83-6.48c5.66-4.15 11.19-7.43 15.61-12.77q11.95-14.4 15.89-30.5 7.27-29.66 5.91-63.58 11.27-0.23 17.4 0.46 18.87 2.13 24 2.51 2.53 0.18 2.79 1.15zm-66.52 169.8q-1.71 13.83 0.85 26.25 2.47 11.98 12.89 17.95l3.02 1.93a0.64 0.64 0 0 1-0.33 1.18q-4.51 0.14-8.54-0.85-17-4.14-31.57-13.21a0.8 0.8 0 0 0-1.2 0.52q-0.68 3.28-4.7 24.98-0.17 0.95 0.71 4.34a0.75 0.74-4 0 0 0.63 0.54q8.53 0.98 11.99 2.2c10.9 3.83 22.52 8.19 34.81 10.39 20.06 3.6 41.53-1.51 59.63-10.27a1.82 1.82 0 0 0 1.02-1.77q-0.62-7.74-2.66-15.76-1.57-6.15-3.34-8.78a0.7 0.69 60.7 0 0-0.85-0.25q-19.98 8.85-40.59 9.47-3.37 0.1-3.4-1.38c13.93-2.66 21.5-12.8 23.96-26.1q1.66-9.01 2.38-18.32c16.73 1.36 30.6-8.8 33.3-25.66a4.25 4.25 0 0 0-3.08-4.77l-0.18-0.05a3.53 3.53 0 0 0-4.41 2.85c-2.02 12.62-11.31 21.61-24.03 20.23q-15.22-1.64-23.01-15.45a3.31 3.24-61.4 0 1-0.42-1.49l-0.29-8.19a1.12 1.12 0 0 1 0.87-1.14q12.17-2.9 21.19-11.7c5.3-5.16 7.99-14.34 1.84-20q-2.87-2.64-7.06-4.3-17.78-7.02-36.05-3.2c-6.74 1.41-12.76 5.79-13.15 12.91-0.64 11.54 13.83 21.57 23.27 25.51a1.75 1.75 0 0 1 1.08 1.66c-0.14 5.56-0.8 9.25-4.65 13.44-7.67 8.35-19.04 11.68-29.56 6.03q-10.05-5.4-10-19.55a3.32 3.32 0 0 0-3.79-3.29l-0.23 0.04a4.24 4.23 86 0 0-3.63 4.18q-0.09 17.19 14.34 25.16 6.1 3.37 12.94 3.72z" fill="#fef3d9"/> <path d="m682 277.63q13.27 2.68 25.93 8.99c5.75 2.87 12.42 7.79 17.47 10.74q1.04 0.6 2.4 0.66-1.39 1.12-0.22 4.94 5.53 18.06 8.98 41.26 0.3 2.05 1.96 16.8c2.08 18.43 2.1 37.33 1.92 55.92q0 0.82-0.57 2.82a0.29 0.29 0 0 1-0.48 0.12q-1.52-1.58-3.63-2.34c-4.24-2.92-8.54-5.94-13.03-8.29-12.87-6.73-24.49-13.27-34.68-22.8-13.46-12.58-18.74-33.4-18.71-51.46 0.04-19.19 2.29-37.52 5.45-57.9a0.56 0.54-81 0 1 0.62-0.46l6.59 1zm20.407 75.359a14.92 11.43-86.4 0 0-12.344 14.173 14.92 11.43-86.4 0 0 10.471 15.608 14.92 11.43-86.4 0 0 12.344-14.173 14.92 11.43-86.4 0 0-10.471-15.608z" fill="#b06713"/> <path d="m586.66 284.12q2.18 0.3 0.04 4.73-3.58 7.38-7.06 16.29-2.32 5.97-6.25 15.98-2.9 7.37-5.52 16.22-9.38 31.71-11.55 64.59-0.04 0.7 0.03 2.13 0.06 1.17-0.2 2.14 0.01 14.89-2.29 29.24c-1.79 6.97-3.6 13.64-8.55 18.85-6.54 6.89-16.67 3.54-23.01-1.87q-5.71-4.86-10.2-10.74-18.91-24.75-27.02-54.7c-3.66-13.51-1.94-25.19 6.86-36.27q6.18-7.78 11.33-12.43 23.58-21.3 26.11-23.4c7.16-5.93 15.32-13.32 23.77-18.37q15.46-9.23 33.51-12.39z" fill="#5c2b08"/> <path d="m727.8 298.02c11.92 2.57 22.96 8.57 32.26 16.11 4.76 3.87 9 8.7 13.7 13.32q1.63 1.61 5.11 5.56 14.45 16.39 25.46 29.68 7.33 8.86 11.37 17.84 4.66 10.39 2.19 21.82-1.25 5.74-3.5 11.29-6.96 17.16-19.63 34.86-9.14 12.77-20.95 21.77-4.09 3.11-10.38 4.5c-16.6 3.66-23.01-12.21-23.72-25.34q-0.23-4.24-0.55-9.32l0.68-18.76a1.05 1.04 20.3 0 0-0.4-0.86l-3.68-2.95q2.11 0.76 3.63 2.34a0.29 0.29 0 0 0 0.48-0.12q0.57-2 0.57-2.82c0.18-18.59 0.16-37.49-1.92-55.92q-1.66-14.75-1.96-16.8-3.45-23.2-8.98-41.26-1.17-3.82 0.22-4.94z" fill="#5c2b08"/> <path d="m454.82 404.6-2.02 2.82a0.47 0.47 0 0 1-0.71 0.06q-0.62-0.6-1.87-1.1a1.53 1.52 84.5 0 1-0.7-0.58l-7.75-11.88q7.53-23.2 7.84-46.42 0.13-9.83-1.28-18.71a1.19 1.18-6.6 0 0-1.26-0.99q-2.43 0.18-5.02 1.53-5.89 3.06-11.21 6.99-14.04 10.38-25.32 23.7-1.54 1.68-3.58 0.35-6.18-4.04-13.4-7.35 16.83-17.91 36.08-30.38c9.24-5.98 28.99-17.59 35.4-1.13q2.77 7.11 3.38 15.52 2.51 34.68-8.58 67.57z" fill="#344354"/> <path d="m307.16 353.87q0.09 0.82-0.79 1.27-7.12 3.65-12.61 7.51-0.72 0.5-2.51 0.14-4.66-5.75-7.37-7.92-5.23-4.19-9.18-7.8-4.1-3.75-18.63-13.14-3.3-2.14-7.17-3.08a1.8 1.8 0 0 0-2.2 1.42q-1.33 6.93-1.17 13.48 0.63 25.65 9.82 51.05l-10.98 16.68q-12.52-31.04-12.74-62.73c-0.06-9.33 0.33-18.97 4.01-27.2 4.84-10.85 16.85-7.3 25.13-3.29 16.79 8.15 31.11 18.97 46.39 33.61z" fill="#344354"/> <path d="m441.77 393.92q-13.42-16.08-30.23-27.32a6.03 5.98 83.9 0 1-0.96-0.78q-2.14-2.12-4.94-3.33a0.85 0.84 1 0 1-0.47-0.48q-0.31-0.84 0.35-1.99 11.28-13.32 25.32-23.7 5.32-3.93 11.21-6.99 2.59-1.35 5.02-1.53a1.19 1.18-6.6 0 1 1.26 0.99q1.41 8.88 1.28 18.71-0.31 23.22-7.84 46.42z" fill="#fc6072"/> <path d="m291.25 362.79q0.11 1.04-0.92 1.79-1.9 1.4-12.61 9.49c-4.44 3.35-8.29 7.2-12.02 10.79q-2.38 2.3-5.29 5.86-2.43 2.97-5.06 6.08-9.19-25.4-9.82-51.05-0.16-6.55 1.17-13.48a1.8 1.8 0 0 1 2.2-1.42q3.87 0.94 7.17 3.08 14.53 9.39 18.63 13.14 3.95 3.61 9.18 7.8 2.71 2.17 7.37 7.92z" fill="#fc6072"/> <ellipse transform="translate(598.62,358.04) rotate(-85.1)" rx="15.08" ry="11.64"/> <path d="m388.54 353.02q7.22 3.31 13.4 7.35 2.04 1.33 3.58-0.35-0.66 1.15-0.35 1.99a0.85 0.84 1 0 0 0.47 0.48q2.8 1.21 4.94 3.33a6.03 5.98 83.9 0 0 0.96 0.78q16.81 11.24 30.23 27.32l7.75 11.88a1.53 1.52 84.5 0 0 0.7 0.58q1.25 0.5 1.87 1.1a0.47 0.47 0 0 0 0.71-0.06l2.02-2.82-1.22 5.32a2.56 2.52 39.6 0 0 0.17 1.65c6.26 13.42 10.12 25.38 9.69 40.22l-0.82 0.46a1.47 1.46 34.3 0 1-0.92 0.17q-18.48-2.5-37.01-1.02c-10.68-0.98-22.78-3.22-32.2-8.93q6.04 1 10.41-3.33a3.96 3.96 0 0 0 0.69-0.9q5.59-9.59 0.72-20c-2.22-4.77-8.83-7.4-13.79-4.73q-3.76 2.02-5.21 5.31-4.56 10.27 1.77 20.44-8.64-4.79-15.58-13.03-14.74-17.48-19.51-38.73-0.75-3.34-1.55-7.47a0.27 0.27 0 0 0-0.53 0c-1.87 10.33-4.71 21.24-9.58 30.5q-4.44 8.44-12.87 18.2-6.66 7.7-14.51 11.7 6.42-10.14 1.7-20.23-2.63-5.63-8.65-6.73c-4.9-0.9-8.42 2.4-10.5 6.53-4.77 9.52-0.91 24.97 12.5 23.13q0.79 0.65-1.93 1.92-13.52 6.29-28.32 7.97-0.66 0.07-0.68 0.78-0.5-0.18-1.02-0.69a1.19 1.17-23.8 0 0-0.9-0.34q-9.82 0.51-19.72 0.28c-5.82-0.13-12.78 1.27-19.24 1.55q-1.01-8.32 0.44-16.44 2.37-13.27 7.72-24.68l10.98-16.68q2.63-3.11 5.06-6.08 2.91-3.56 5.29-5.86c3.73-3.59 7.58-7.44 12.02-10.79q10.71-8.09 12.61-9.49 1.03-0.75 0.92-1.79 1.79 0.36 2.51-0.14 5.49-3.86 12.61-7.51 0.88-0.45 0.79-1.27l0.92 0.02a2.07 2.07 0 0 0 0.95-0.21c17.72-8.49 37.35-12.26 56.42-8.61 4.35 0.83 10.98 3.12 16.24 5.28q3.52 1.46 6.85 2.67z" fill="#5e6b7a"/> <ellipse transform="translate(701.47,367.88) rotate(-86.4)" rx="14.92" ry="11.43"/> <path d="m670.19 450.49q-1.25-0.55-3.41-0.83c-8.63-1.13-15.76-6.95-21.21-13.42q-0.38-1.44-1.63-2.17a0.68 0.68 0 0 0-0.82 0.11l-3.72 3.89c-7.81 5.88-14.17 9.51-23.92 9.36q-6.84-0.35-12.94-3.72-14.43-7.97-14.34-25.16a4.24 4.23 86 0 1 3.63-4.18l0.23-0.04a3.32 3.32 0 0 1 3.79 3.29q-0.05 14.15 10 19.55c10.52 5.65 21.89 2.32 29.56-6.03 3.85-4.19 4.51-7.88 4.65-13.44a1.75 1.75 0 0 0-1.08-1.66c-9.44-3.94-23.91-13.97-23.27-25.51 0.39-7.12 6.41-11.5 13.15-12.91q18.27-3.82 36.05 3.2 4.19 1.66 7.06 4.3c6.15 5.66 3.46 14.84-1.84 20q-9.02 8.8-21.19 11.7a1.12 1.12 0 0 0-0.87 1.14l0.29 8.19a3.31 3.24-61.4 0 0 0.42 1.49q7.79 13.81 23.01 15.45c12.72 1.38 22.01-7.61 24.03-20.23a3.53 3.53 0 0 1 4.41-2.85l0.18 0.05a4.25 4.25 0 0 1 3.08 4.77c-2.7 16.86-16.57 27.02-33.3 25.66z"/> <path d="m387.1 439.26 5.41 3.21c9.42 5.71 21.52 7.95 32.2 8.93q-1.84 3.88 0.83 5.65a1.71 1.71 0 0 0 0.79 0.28l5.29 0.48 10.6 10.53a0.25 0.24-60 0 1 0.06 0.24q-0.09 0.37-0.55 0.25-7.22-2.36-15.97-3.6a2.78 2.78 0 0 0-3.15 2.47l-0.02 0.12a3.15 3.15 0 0 0 2.55 3.41q14.75 2.83 28.48 9.46-8.99 12.47-21.99 22.57-8.65 7.39-20.2 12.45l-3.31 1.78a1 0.99 64.3 0 0-0.44 1.27q6.88 15.61 11.76 32.91 3.46 12.29 3.39 20.99-0.18 24.87-16.1 44.11-5.4 6.53-10.81 11.33a2.2 2.19-19.7 0 0-0.74 1.55q-1.1 23.4-3.58 48.42-1.53 15.49-5.15 35.3-3.69-4.31-6.03-9.4-3.89-7.57-6.73-16.66c-6.58-21.1-10.24-41.82-14.11-63.88a4.71 4.71 0 0 0-1.95-3.05q-24.24-16.89-36.19-44.38-3.76-8.64-6.56-19.83-2.75-10.96-2.84-19.32l0.34-9.85a0.91 0.91 0 0 0-0.62-0.9c-15.12-4.98-28.2-11.28-41.48-21.69q-0.3-0.23-0.65 0.11-0.09-0.98-0.63-1.25-8.44-4.29-12.17-11.68l1-7.78a2.44 2.41-24.9 0 1 0.39-1.05l2.86-4.34q6.67-3.59 15.06-5.22a2.98 2.97-10.9 0 0 2.36-3.47l-0.02-0.12a2.87 2.86 78.5 0 0-3.43-2.28l-13.87 3.05 10.36-10.61c3.79 0.17 7.13-1.61 5.55-5.97q0.02-0.71 0.68-0.78 14.8-1.68 28.32-7.97 2.72-1.27 1.93-1.92 2.44-0.61 4.95-2.7 7.85-4 14.51-11.7 8.43-9.76 12.87-18.2c4.87-9.26 7.71-20.17 9.58-30.5a0.27 0.27 0 0 1 0.53 0q0.8 4.13 1.55 7.47 4.77 21.25 19.51 38.73 6.94 8.24 15.58 13.03zm-37.88 21.99c-1.35 5.79-1.64 11.01-7.29 14.3q-3.43 2.01-6.83 1.46c-5.35-0.85-8.02-3.58-11.59-7.61a2.85 2.81 54 0 0-3.54-0.59c-2.39 1.39-1.35 4.89 0.06 6.71q4.69 6.1 12.87 7.91c6.56 1.44 13.26-1.62 17.7-6.64a0.51 0.51 0 0 1 0.75 0c7.37 8.02 17.59 9.18 26.2 2.81 2.73-2.02 7.22-6.28 6.12-9.83-0.74-2.4-3.94-2.14-5.21-0.54q-2.45 3.07-4.75 4.71c-11.1 7.89-19.65-1.39-21.26-12.23q0.01-1.03 0.93-1.59c4.1-2.5 16.77-12.08 11.83-17.52-2.78-3.07-17.75-2.04-22.45-1.71q-3.25 0.23-6.54 2.14a1.62 1.61-6.3 0 0-0.72 0.89q-1.07 3.22-0.01 4.83 4.87 7.41 13.1 11.45 0.69 0.33 0.63 1.05zm51.75 59.9q-1.54 0.26-2.47 0.6c-5.2 1.91-11.99 4.51-18.28 5.78q-17.09 3.45-34 3.29c-8.32-0.07-18.36-1.38-24.46-2.12q-2.9-0.36-6.96-1.56a1.12 1.12 0 0 0-1.44 1.07v6.96a2.04 2.04 0 0 0 1.23 1.87q3.64 1.6 7.82 2.56 9.74 2.23 22.39 4.07c18.56 2.69 37.52-0.72 50.25-15.13q3.65-4.13 6.09-7.08a0.19 0.19 0 0 0-0.17-0.31z" fill="#fef3d9"/> <path d="m392.51 442.47-5.41-3.21q-6.33-10.17-1.77-20.44 1.45-3.29 5.21-5.31c4.96-2.67 11.57-0.04 13.79 4.73q4.87 10.41-0.72 20a3.96 3.96 0 0 1-0.69 0.9q-4.37 4.33-10.41 3.33z"/> <path d="m312.97 440.43q-2.51 2.09-4.95 2.7c-13.41 1.84-17.27-13.61-12.5-23.13 2.08-4.13 5.6-7.43 10.5-6.53q6.02 1.1 8.65 6.73 4.72 10.09-1.7 20.23z"/> <path d="m645.57 436.24q-1.37 23.06-3.16 45.99-0.21 2.69-1.41 4.29a1.39 1.39 0 0 1-2.47-0.53q-0.8-3.55-0.72-6.99 0.47-20.18 1.59-40.93l3.72-3.89a0.68 0.68 0 0 1 0.82-0.11q1.25 0.73 1.63 2.17z" fill="#ab0802"/> <path d="m645.57 436.24c5.45 6.47 12.58 12.29 21.21 13.42q2.16 0.28 3.41 0.83-0.72 9.31-2.38 18.32c-2.46 13.3-10.03 23.44-23.96 26.1q-7.51 0.91-14.63-3.28-10.42-5.97-12.89-17.95-2.56-12.42-0.85-26.25c9.75 0.15 16.11-3.48 23.92-9.36q-1.12 20.75-1.59 40.93-0.08 3.44 0.72 6.99a1.39 1.39 0 0 0 2.47 0.53q1.2-1.6 1.41-4.29 1.79-22.93 3.16-45.99z" fill="#fc6072"/> <path d="m352.45 461.71q-1.03-0.82-3.23-0.46 0.06-0.72-0.63-1.05-8.23-4.04-13.1-11.45-1.06-1.61 0.01-4.83a1.62 1.61-6.3 0 1 0.72-0.89q3.29-1.91 6.54-2.14c4.7-0.33 19.67-1.36 22.45 1.71 4.94 5.44-7.73 15.02-11.83 17.52q-0.92 0.56-0.93 1.59z" fill="#f84d2e"/> <path d="m463.46 451.79q0 0.28 0.28 0.52 0.31 0.27 0.56 0.3 4.1 0.48 8.68 1.43a2.92 2.91-78 0 1 2.25 3.47l-0.02 0.11a3.11 3.08-80.2 0 1-3.4 2.42l-9.05-1.14q-15.62-3.01-31.14-1.09l-5.29-0.48a1.71 1.71 0 0 1-0.79-0.28q-2.67-1.77-0.83-5.65 18.53-1.48 37.01 1.02a1.47 1.46 34.3 0 0 0.92-0.17l0.82-0.46z" fill="#521d02"/> <path d="m277.09 453.8c1.58 4.36-1.76 6.14-5.55 5.97q-2.8-0.81-5.54-0.86-14.34-0.3-28.4 2.34l-8.31 1.45a3.13 3.13 0 0 1-3.6-2.44l-0.02-0.12a3.1 3.07 77.7 0 1 2.32-3.66l8.22-1.88c6.46-0.28 13.42-1.68 19.24-1.55q9.9 0.23 19.72-0.28a1.19 1.17-23.8 0 1 0.9 0.34q0.52 0.51 1.02 0.69z" fill="#521d02"/> <path d="m584.21 510.29q-1.37 0.37-6.44 1.26c-15.98 2.8-27.25 13.29-35.67 27.14a0.58 0.56-81.5 0 1-0.34 0.26q-0.6 0.18-0.82-0.42 5.37-27.61 14.97-59.7 4.46-14.9 8.72-25.17 10.7 15.25 24.93 25.51a0.88 0.88 0 0 1 0.33 0.92q-3.88 14.86-5.68 30.2z" fill="#5c2b08"/> <path d="m729.43 455.55q4.13 20.47 15.19 38.4-4.55 0.53-8.92 1.13-4.88 0.68-8.76 1.95-11.1 3.63-19.76 9.38-6.42 4.26-11.09 6.09-1.33-13.35-5.36-26.17a0.61 0.61 0 0 1 0.29-0.72q7.83-4.21 13.98-8.35 13.1-8.8 24.43-21.71z" fill="#5c2b08"/> <path d="m462.76 458.9q-2.35 8.28-6.28 16.18l-14.75-6.25q0.46 0.12 0.55-0.25a0.25 0.24-60 0 0-0.06-0.24l-10.6-10.53q15.52-1.92 31.14 1.09z" fill="#5e6b7a"/> <path d="m271.54 459.77-10.36 10.61-16.51 7.22-7.07-16.35q14.06-2.64 28.4-2.34 2.74 0.05 5.54 0.86z" fill="#5e6b7a"/> <path d="m352.45 461.71c1.61 10.84 10.16 20.12 21.26 12.23q2.3-1.64 4.75-4.71c1.27-1.6 4.47-1.86 5.21 0.54 1.1 3.55-3.39 7.81-6.12 9.83-8.61 6.37-18.83 5.21-26.2-2.81a0.51 0.51 0 0 0-0.75 0c-4.44 5.02-11.14 8.08-17.7 6.64q-8.18-1.81-12.87-7.91c-1.41-1.82-2.45-5.32-0.06-6.71a2.85 2.81 54 0 1 3.54 0.59c3.57 4.03 6.24 6.76 11.59 7.61q3.4 0.55 6.83-1.46c5.65-3.29 5.94-8.51 7.29-14.3q2.2-0.36 3.23 0.46z"/> <path d="m441.73 468.83 14.75 6.25 11.07 5.89a2.84 2.8-62.3 0 1 1.15 3.79l-0.05 0.1a2.9 2.84-63.3 0 1-3.79 1.3l-11.24-5.47q-13.73-6.63-28.48-9.46a3.15 3.15 0 0 1-2.55-3.41l0.02-0.12a2.78 2.78 0 0 1 3.15-2.47q8.75 1.24 15.97 3.6z" fill="#521d02"/> <path d="m261.08 478.42q-7.44 0.78-13.04 4.91l-11.55 5.63a2.98 2.93 61.3 0 1-3.8-1.14l-0.05-0.1a2.7 2.58 59.3 0 1 0.85-3.69l11.18-6.43 16.51-7.22 13.87-3.05a2.87 2.86 78.5 0 1 3.43 2.28l0.02 0.12a2.98 2.97-10.9 0 1-2.36 3.47q-8.39 1.63-15.06 5.22z"/> <path d="m261.08 478.42-2.86 4.34a2.44 2.41-24.9 0 0-0.39 1.05l-1 7.78-8.79-8.26q5.6-4.13 13.04-4.91z" fill="#5e6b7a"/> <path d="m629.22 491.63q7.12 4.19 14.63 3.28 0.03 1.48 3.4 1.38 20.61-0.62 40.59-9.47a0.7 0.69 60.7 0 1 0.85 0.25q1.77 2.63 3.34 8.78 2.04 8.02 2.66 15.76a1.82 1.82 0 0 1-1.02 1.77c-18.1 8.76-39.57 13.87-59.63 10.27-12.29-2.2-23.91-6.56-34.81-10.39q-3.46-1.22-11.99-2.2a0.75 0.74-4 0 1-0.63-0.54q-0.88-3.39-0.71-4.34 4.02-21.7 4.7-24.98a0.8 0.8 0 0 1 1.2-0.52q14.57 9.07 31.57 13.21 4.03 0.99 8.54 0.85a0.64 0.64 0 0 0 0.33-1.18l-3.02-1.93z" fill="#e9d8c5"/> <path d="m760.72 515.5q0.62 5.87 1.81 11.24 2.01 9.07 2.23 11.17 1.16 10.75 0.15 22.87-1.06 12.57-5.04 24.06-3.91 11.28-9.94 22.54-6.78 12.67-16.34 23.67a2.71 2.6 74.1 0 0-0.56 1.06q-10.45 39.16-27.99 75.71c-5.66-8.88-15.42-11.65-25.67-12.92q-15.89-1.97-30.08 1.61-2.04 0.52-5.82 2.4-0.21-3.31 0.23-6.42 2.93-20.51 6.41-40.6 1.59-8.59 4.45-21.58c0.85-3.84 1.98-6.19 4.73-9.22 8.24-9.09 14.54-16.28 19.48-24.79q5.4-9.32 9.41-19.38c8.04-20.19 10.33-42.85 7.91-64.42q4.67-1.83 11.09-6.09 8.66-5.75 19.76-9.38 3.88-1.27 8.76-1.95 4.37-0.6 8.92-1.13 7.3 11.6 16.1 21.55z" fill="#b06713"/> <path d="m442.65 518.95q-17.03-3.63-33.9-0.31a0.07 0.07 0 0 1-0.05-0.13l3.41-1.97a0.47 0.47 0 0 0-0.24-0.88q-0.18 0.01-0.44 0.05 11.55-5.06 20.2-12.45 2.2-0.72 3.81-2.44a0.51 0.51 0 0 1 0.85 0.17l6.36 17.96z" fill="#344354"/> <path d="m312.04 536.85q-14.87-3.15-24.54-2.69-8.4 0.4-16.49 4.11-3.99 1.83-6.36 4.91a1.83 1.8-26.6 0 0-0.36 1.05q-0.11 21.2 2.92 37.77 2.46 13.44 8.74 33.03 2.19 6.85 5.5 14.35 4.78 10.82 6.46 13.98 0.05 0.08 6.35 10.84 2.39 4.08 5.74 14.26 2.29 6.97 9.92 32.36 1.99 6.62 7.09 16.71 3.54 11.53 16.8 18.29l-33.7 0.07q5.33-4.17 6.99-10.02c3.41-11.96-3.12-23.84-14.47-27.88-3.93-1.4-8.75-1.2-13.1-1.11q3.37-0.02 6.72-0.1 0.26-0.01 0.34-0.08a0.04 0.04 0 0 0-0.03-0.07l-2.42-0.12a0.76 0.75 80.4 0 1-0.67-0.48q-0.84-2.04-0.65-3.06 3.21-18.03 2.64-32.16c-0.8-19.63-11.69-36.02-30.54-42.15-17.22-5.61-39.52-2.13-48.91 15.21q-1.04 1.92-3.31 5.51a4.26 4.16-20.3 0 0-0.39 0.82q-1.82 5.36-1.06 11.3 0.2 1.61-2.3 6.49 0.41-5.38 0.87-10.46c2.57-28.69 17.98-51.68 36.58-74.46 10.63-13.02 20.17-25.2 27.61-39.86a3.84 3.77-29.9 0 0 0.39-1.39q1.12-13.92 5.23-27.3 0.35-0.34 0.65-0.11c13.28 10.41 26.36 16.71 41.48 21.69a0.91 0.91 0 0 1 0.62 0.9l-0.34 9.85z" fill="#344354"/> <path d="m584.21 510.29c-3.18 25.94-3.04 53.4 4.27 78.65q1.59 5.49 4.09 10.87 3.42 7.36 5.26 10.37 1.6 2.61 4.87 6.29l0.99 81.85q-3.79-2.45-9.25-4.01-22.43-6.41-43.93 0.9-0.9-6.02-4.16-25.83-3.2-19.37-7.35-53.63-1.79-14.74-1.93-29.4a0.47 0.46-7 0 0-0.58-0.44q-0.27 0.06-0.38 0.33c0.34-3.18 0.97-6.11 1-9.3q0.24-19.37 3.83-38.41 0.22 0.6 0.82 0.42a0.58 0.56-81.5 0 0 0.34-0.26c8.42-13.85 19.69-24.34 35.67-27.14q5.07-0.89 6.44-1.26z" fill="#b06713"/> <path d="m411.43 515.71q0.26-0.04 0.44-0.05a0.47 0.47 0 0 1 0.24 0.88l-3.41 1.97a0.07 0.07 0 0 0 0.05 0.13q16.87-3.32 33.9 0.31 3.17 10.03 6.16 20.63 4.48 15.91 7.12 32.23 1.59 9.83 2.66 19.2-0.68 1.58-0.09 3.96 0.7 2.81 0.79 3.92 2.34 29.53-0.95 58.98c-1.05 9.37-2.94 25.57-6.1 37.9-13.14-5.06-30.28-5.45-43.15 1.05-9.77 4.94-13.71 13.13-14.44 23.71l-0.2-2.64a0.74 0.72 5.9 0 0-0.53-0.64q-4.19-1.15-7.47-3.88 3.62-19.81 5.15-35.3 2.48-25.02 3.58-48.42a2.2 2.19-19.7 0 1 0.74-1.55q5.41-4.8 10.81-11.33 15.92-19.24 16.1-44.11 0.07-8.7-3.39-20.99-4.88-17.3-11.76-32.91a1 0.99 64.3 0 1 0.44-1.27l3.31-1.78z" fill="#5e6b7a"/> <path d="m760.72 515.5c4.72 5.33 9.32 10.98 13.76 15.66 13.21 13.95 25.51 27.69 36.42 44.04 13.33 19.97 20.69 40.67 23.61 64.37a0.41 0.41 0 0 0 0.69 0.25c19.6-18.4 31.64-41.43 33.69-68.36q0.01-0.24 0.8-2.78c1.69-5.41 6.54-1.65 8.81 1.07 17.83 21.44 18.72 57.01 14.16 83.19-4.13 23.72-17.99 45.68-37.26 58.48q-13.19 8.77-31.54 12.46-0.68-0.75 0.03-2 2.1-3.67 5.14-10.18 2.72-5.84 3.94-10.68 5.43-21.56 3.96-40.47-0.79-10.14-6.12-22.83a5.3 5.07-76.5 0 0-0.66-1.13q-5.28-6.89-7.4-8.85-11.92-10.98-27.76-11.2c-12.81-0.17-26.85 4.36-35.65 14.18q-10.3 11.5-11.71 27.5-1.71 19.39 5.68 37.93-14.39 3.88-22.93 14.23-5.17 6.27-6.27 13.24-0.93 5.89 2.35 13.33l-18.5-0.12-4.32-0.23a0.55 0.55 0 0 1-0.49-0.72c2.89-8.67 4.54-19.19 1.89-28.06q17.54-36.55 27.99-75.71a2.71 2.6 74.1 0 1 0.56-1.06q9.56-11 16.34-23.67 6.03-11.26 9.94-22.54 3.98-11.49 5.04-24.06 1.01-12.12-0.15-22.87-0.22-2.1-2.23-11.17-1.19-5.37-1.81-11.24z" fill="#5c2b08"/> <path d="m400.97 521.15a0.19 0.19 0 0 1 0.17 0.31q-2.44 2.95-6.09 7.08c-12.73 14.41-31.69 17.82-50.25 15.13q-12.65-1.84-22.39-4.07-4.18-0.96-7.82-2.56a2.04 2.04 0 0 1-1.23-1.87v-6.96a1.12 1.12 0 0 1 1.44-1.07q4.06 1.2 6.96 1.56c6.1 0.74 16.14 2.05 24.46 2.12q16.91 0.16 34-3.29c6.29-1.27 13.08-3.87 18.28-5.78q0.93-0.34 2.47-0.6z" fill="#e9d8c5"/> <path d="m198.63 661.04q0.31 9.54 1.06 19.27 1.42 18.58 8.55 34.76c1.84 4.18 5.08 7.61 7.55 10.91a0.57 0.57 0 0 1-0.41 0.91l-2.31 0.19q-26.62-3.18-44.38-21.5c-8.66-8.93-15.74-20.7-20.48-32.87q-11.95-30.65-8.91-65.2 1.65-18.78 8.01-34.92c10.21-25.93 33.74-47.85 63.47-43.28 7.87 1.21 15.31 5.51 17.65 12.76 3.2 9.91 0.56 20.08-8.99 24.61-4.52 2.14-10.97 3.44-15.15 6.1-9.61 6.09-15.39 17.51-17.53 28.49q-5.3 27.11 6.4 52.05 1.4 2.99 5.47 7.72z" fill="#344354"/> <path d="m312.04 536.85q0.09 8.36 2.84 19.32 2.8 11.19 6.56 19.83 11.95 27.49 36.19 44.38a4.71 4.71 0 0 1 1.95 3.05c3.87 22.06 7.53 42.78 14.11 63.88q2.84 9.09 6.73 16.66l-2.98 4.81q-7.76-10.44-20.72-12.84-8.11-1.5-17.99 0.58-13.74 2.88-20.46 14.02-1.14 1.9-1.26 6.99-5.1-10.09-7.09-16.71-7.63-25.39-9.92-32.36-3.35-10.18-5.74-14.26-6.3-10.76-6.35-10.84-1.68-3.16-6.46-13.98-3.31-7.5-5.5-14.35-6.28-19.59-8.74-33.03-3.03-16.57-2.92-37.77a1.83 1.8-26.6 0 1 0.36-1.05q2.37-3.08 6.36-4.91 8.09-3.71 16.49-4.11 9.67-0.46 24.54 2.69z" fill="#5e6b7a"/> <path d="m550.51 695.21q-16.76 8.7-13.01 28.29 1.39 7.27 5.05 12.69-10.67 0.92-17.44-0.49c-13.8-2.85-13.76-21.14-9.11-31.02q3.59-7.64 11.39-10.85a1.07 1.06 75.1 0 0 0.65-1.13q-2.76-20.09-1.23-40.95 2.42-33.04 9.3-65.51 0.11-0.27 0.38-0.33a0.47 0.46-7 0 1 0.58 0.44q0.14 14.66 1.93 29.4 4.15 34.26 7.35 53.63 3.26 19.81 4.16 25.83z" fill="#5c2b08"/> <path d="m458.59 591.01q4.79 12.34 9.21 24.19 1.08 2.91 5.62 18.84 6.79 23.82 4.82 48.46c-0.28 3.45-1.22 7.69-1.74 10.82a0.93 0.93 0 0 0 0.56 1c10.65 4.32 14.98 15.17 14.25 26.11q-0.75 11.16-10.58 14.35-1.55 0.5-7 1.14-6.39 0.75-21.66 0.05 8.56-5.64 11.23-12.72c4.31-11.41-0.09-21.95-11.06-27.48 3.16-12.33 5.05-28.53 6.1-37.9q3.29-29.45 0.95-58.98-0.09-1.11-0.79-3.92-0.59-2.38 0.09-3.96z" fill="#344354"/> <path d="m279.53 696.88q-6.09 0.4-11.95 2.25-14.53 4.58-26.67 13.75-4.54 3.44-8.2 7.85-5.5 6.63-1.4 14.18-7.73-1.84-13.71-6.79a1.97 1.96 69.7 0 0-0.91-0.42l-3.62-0.62 2.31-0.19a0.57 0.57 0 0 0 0.41-0.91c-2.47-3.3-5.71-6.73-7.55-10.91q-7.13-16.18-8.55-34.76-0.75-9.73-1.06-19.27l0.32-3.05q2.5-4.88 2.3-6.49-0.76-5.94 1.06-11.3a4.26 4.16-20.3 0 1 0.39-0.82q2.27-3.59 3.31-5.51c9.39-17.34 31.69-20.82 48.91-15.21 18.85 6.13 29.74 22.52 30.54 42.15q0.57 14.13-2.64 32.16-0.19 1.02 0.65 3.06a0.76 0.75 80.4 0 0 0.67 0.48l2.42 0.12a0.04 0.04 0 0 1 0.03 0.07q-0.08 0.07-0.34 0.08-3.35 0.08-6.72 0.1z" fill="#5e6b7a"/> <path d="m823.86 723.88q-4.75 2.07-8.75 7.25-0.17-0.35-0.3-0.59a2.45 0.52 56.2 0 1-0.47-1.18q-0.71-4.88-3.73-8.98c-9.88-13.39-25.3-21.14-41.61-24.15q-2.66-0.49-5.17-0.33-2.24 0.14-5.18 0.04-3.06-0.11-5.34 0.21-7.39-18.54-5.68-37.93 1.41-16 11.71-27.5c8.8-9.82 22.84-14.35 35.65-14.18q15.84 0.22 27.76 11.2 2.12 1.96 7.4 8.85a5.3 5.07-76.5 0 1 0.66 1.13q5.33 12.69 6.12 22.83 1.47 18.91-3.96 40.47-1.22 4.84-3.94 10.68-3.04 6.51-5.14 10.18-0.71 1.25-0.03 2z" fill="#b06713"/> <path d="m602.7 616.47q6.3 7.13 11.17 10.66 14.34 10.38 36.24 24.76-3.48 20.09-6.41 40.6-0.44 3.11-0.23 6.42-10.82 6.75-15.22 19.33-3.16 9.04-1.14 18.4l-15.13 0.07c2.07-12.11 0.59-29.17-8.29-38.39l-0.99-81.85z" fill="#521d02"/> <path d="m603.69 698.32c8.88 9.22 10.36 26.28 8.29 38.39q-7.36 0.06-14.82 0.31c-15.79 0.53-33.82 0-46.74-0.27q-3.23-0.07-7.87-0.56-3.66-5.42-5.05-12.69-3.75-19.59 13.01-28.29 21.5-7.31 43.93-0.9 5.46 1.56 9.25 4.01zm-22.92 38.33 4.62 0.04a0.82 0.82 0 0 0 0.82-0.81l0.09-10.32a12.26 2.12-89.5 0 0-2.01-12.28l-2.02-0.02a12.26 2.12-89.5 0 0-2.22 12.24l-0.09 10.32a0.82 0.82 0 0 0 0.81 0.83zm-26.07-0.19 4.58 0.2a0.84 0.84 0 0 0 0.87-0.81l0.54-12.8a9.35 2.31-87.6 0 0-1.92-9.44l-1.64-0.06a9.35 2.31-87.6 0 0-2.7 9.24l-0.53 12.8a0.84 0.84 0 0 0 0.8 0.87z" fill="#fef3d9"/> <path d="m452.24 695.77c10.97 5.53 15.37 16.07 11.06 27.48q-2.67 7.08-11.23 12.72-2.47 0.4-3.89 0.41-24.01 0.04-48.02 0.48-2.89 0.05-5.68-0.71l0.88-0.06a0.68 0.68 0 0 0 0.62-0.84q-1.78-7.2-1.33-14.72c0.73-10.58 4.67-18.77 14.44-23.71 12.87-6.5 30.01-6.11 43.15-1.05z" fill="#fef3d9"/> <path d="m705.04 707.82c2.65 8.87 1 19.39-1.89 28.06a0.55 0.55 0 0 0 0.49 0.72l4.32 0.23q-20.29 0.99-25.55 0.62-10.26-0.71-22.17-0.43-2.47 0.06-4.81-0.27 0.97-9.53 0.59-19.8a2.3 2.29-87.8 0 0-2.03-2.2q-2.75-0.3-3.09 3.14-0.83 8.52-1.24 17.13-0.09 1.77 2.33 1.74-12.35 0.45-21.2 0.28-2.23-0.04-3.68-0.4-2.02-9.36 1.14-18.4 4.4-12.58 15.22-19.33 3.78-1.88 5.82-2.4 14.19-3.58 30.08-1.61c10.25 1.27 20.01 4.04 25.67 12.92zm-27.88 28.81 4.49 0.17a0.83 0.83 0 0 0 0.86-0.8l0.51-13.77a7.43 2.68-87.9 0 0-2.41-7.53l-0.8-0.03a7.43 2.68-87.9 0 0-2.95 7.33l-0.5 13.77a0.83 0.83 0 0 0 0.8 0.86z" fill="#fef3d9"/> <path d="m377.44 708.78q9.2 12.37 4.8 27.65-21.29 0.11-42.74 0.17-3.7 0.01-5.69-0.78-13.26-6.76-16.8-18.29 0.12-5.09 1.26-6.99 6.72-11.14 20.46-14.02 9.88-2.08 17.99-0.58 12.96 2.4 20.72 12.84z" fill="#fef3d9"/> <path d="m815.11 731.13q-3.23 2.99-7.94 4.53-3.69 1.19-9.08 1.17c-12.85-0.06-24.73-0.51-37.43 0.22q-1.72 0.09-7.82 0.04-1.9-0.02-7.84 0.33-5.96 0.35-18.54-0.47-3.28-7.44-2.35-13.33 1.1-6.97 6.27-13.24 8.54-10.35 22.93-14.23 2.28-0.32 5.34-0.21 2.94 0.1 5.18-0.04 2.51-0.16 5.17 0.33c16.31 3.01 31.73 10.76 41.61 24.15q3.02 4.1 3.73 8.98a2.45 0.52 56.2 0 0 0.47 1.18q0.13 0.24 0.3 0.59zm-65.87 5.65h4.13a0.92 0.92 0 0 0 0.87-1.22c-2.21-6.45-1.54-13.7-0.62-21.07a2.14 2.13 5.6 0 0-1.98-2.4h-0.07a2.65 2.64-81 0 0-2.74 2c-1.94 7.82-3.5 14.69-0.99 21.7a1.48 1.48 0 0 0 1.4 0.99z" fill="#fef3d9"/> <path d="m279.53 696.88c4.35-0.09 9.17-0.29 13.1 1.11 11.35 4.04 17.88 15.92 14.47 27.88q-1.66 5.85-6.99 10.02-2.53 0.64-5.12 0.63-29.11-0.08-58.22 0-2.64 0.01-5.46-1.61-4.1-7.55 1.4-14.18 3.66-4.41 8.2-7.85 12.14-9.17 26.67-13.75 5.86-1.85 11.95-2.25z" fill="#fef3d9"/> <path d="m380.42 703.97q2.34 5.09 6.03 9.4 3.28 2.73 7.47 3.88a0.74 0.72 5.9 0 1 0.53 0.64l0.2 2.64q-0.45 7.52 1.33 14.72a0.68 0.68 0 0 1-0.62 0.84l-0.88 0.06q-6.26-0.56-12.24 0.28 4.4-15.28-4.8-27.65l2.98-4.81z" fill="#344354"/> <path d="m747.84 735.79c-2.51-7.01-0.95-13.88 0.99-21.7a2.65 2.64-81 0 1 2.74-2h0.07a2.14 2.13 5.6 0 1 1.98 2.4c-0.92 7.37-1.59 14.62 0.62 21.07a0.92 0.92 0 0 1-0.87 1.22h-4.13a1.48 1.48 0 0 1-1.4-0.99z" fill="#9e8c79"/> <path d="m580.77 736.65a0.82 0.82 0 0 1-0.81-0.83l0.09-10.32a12.26 2.12-89.5 0 1 2.22-12.24l2.02 0.02a12.26 2.12-89.5 0 1 2.01 12.28l-0.09 10.32a0.82 0.82 0 0 1-0.82 0.81l-4.62-0.04z" fill="#9e8c79"/> <path d="m554.7 736.46a0.84 0.84 0 0 1-0.8-0.87l0.53-12.8a9.35 2.31-87.6 0 1 2.7-9.24l1.64 0.06a9.35 2.31-87.6 0 1 1.92 9.44l-0.54 12.8a0.84 0.84 0 0 1-0.87 0.81l-4.58-0.2z" fill="#9e8c79"/> <path d="m655.43 736.75-3.44 0.01q-2.42 0.03-2.33-1.74 0.41-8.61 1.24-17.13 0.34-3.44 3.09-3.14a2.3 2.29-87.8 0 1 2.03 2.2q0.38 10.27-0.59 19.8z" fill="#9e8c79"/> <path d="m677.16 736.63a0.83 0.83 0 0 1-0.8-0.86l0.5-13.77a7.43 2.68-87.9 0 1 2.95-7.33l0.8 0.03a7.43 2.68-87.9 0 1 2.41 7.53l-0.51 13.77a0.83 0.83 0 0 1-0.86 0.8l-4.49-0.17z" fill="#9e8c79"/> <path d="m966.39 807.96-0.19-2.67a0.81 0.8-21.9 0 0-1.32-0.56q-2.96 2.45-6.24 5.36c-6.5 5.77-15.75 9.23-24.27 12.17q-4.36 1.5-12.6 3.29c-18.47 4.01-34.84 7.27-52.67 8.53-12.44 0.88-17.14 1.64-25.77 1.08q-2.39-0.15-6.65 0.02-12.36 0.5-24.69-0.39 1.69-3.17 4.69-5.6 2.95-2.39 6.82-2.44 7.65-0.08 15.15-0.22 29.98-0.48 59.34-5.8 11.35-2.06 23.17-5.25 0.63 0.04 1.27-0.13c8.6-2.17 28.31-9.23 30.01-20.04a1.73 1.69 37.1 0 0-0.15-1q-1.89-3.91-4.1-5.51c-14.87-10.81-30.94-13.1-50.66-16.83q-12.38-2.35-26.71-3.48-42.75-3.36-85.21 0.74-8.26 0.8-16.06 2.31c-13.58 2.63-23.48 4.2-34.89 7.75q-6.52 2.04-15.13 7.3-5.58 3.41-7.28 7.73a2.32 2.31 51 0 0-0.13 1.28c1.89 10.71 21.27 17.46 30.16 19.82q0.51 0.13 1.25-0.01 24.36 6.72 45.72 8.77 4.3 0.42 21.18 1.67l-5.1 8.3q-22.93-0.75-46.2-5.22-10.97-2.1-14.49-2.82-8.44-1.72-14.22-3.81-11.96-4.33-19.77-8.68-4.57-2.55-8.34-7.5a0.96 0.37 69.2 0 0-0.08-0.09l-3.25-3.07a0.3 0.3 0 0 0-0.42 0.01l-0.81 0.8a1.03 1.01-22.8 0 0-0.3 0.72l-0.04 7.47q-0.44-8.63-0.22-13.46 0.27-6.02 5.19-10.11 8.29-6.91 16.45-10.56c4.22-1.88 10.74-4.46 16.13-5.93 41-11.19 83.7-13.84 126.06-11.47q33.06 1.85 65.35 10.22c10.79 2.79 21.35 6.96 30.48 13.28q4.44 3.07 6.83 6.37c1.81 2.49 2.46 4.18 2.58 7.49q0.2 5.09 0.13 10.17z" fill="#f84d2e"/> <path d="m308.7 849.09q-0.31 7.26-2.41 14.56-5.6 8.5-16.32 12.34-7.98 2.86-15.73 4.25-19.08 3.42-37.36 4.62c-15.35 1.01-34.84 1.89-52.55 1.88q-49.45-0.01-60.83-0.5-17.38-0.74-30.15-1.11-6.68-0.19-11.7-0.51-5.76-0.36-11.68-0.71c4.53-3.04 7.5-5.15 9.06-10.45 2.72-9.29-4.66-18.13-14.22-18.08q-1.79 0-3.92 0.06 8.43-16.46 19.93-30.61 0.18-0.22 0.2-0.47 0.51-0.15 0.81-0.52c9.41-11.65 21.28-21.81 33.19-30.8 2.19-1.65 5.32-3.17 7.77-5.21q16.02-9.8 33.97-15.8c29.67-9.93 63.31-10.01 91.84 2.21q24.53 10.51 42.16 31.65c7.64 9.16 12.71 19.18 15.93 30.4q1.76 6.16 2.01 12.8zm-146.85-5.87a1.17 1.15-10.6 0 0 0.96 0.65c9.33 0.7 18.92-1.55 26.01-7.57 12.21-10.38 15.25-28.1 5.6-41.23-7.17-9.77-17.41-12.97-29.17-12.1-15.68 1.15-26.84 14.76-27.95 29.78a2.61 2.58-65.7 0 0 0.76 2.04q9.53 9.53 17.68 19.22 3.75 4.45 6.11 9.21zm-31.741 4.7345a9.74 9.54-3.8 0 0-10.351-8.8735 9.74 9.54-3.8 0 0-9.0863 10.164 9.74 9.54-3.8 0 0 10.351 8.8735 9.74 9.54-3.8 0 0 9.0863-10.164z" fill="#0e69bd"/> <path d="m921.16 815.48q-24.95-7.72-50.15-9.9-12.24-1.07-14.77-1.25-24.25-1.73-48.48 0.08-6.75 0.5-8.51 0.61-27.61 1.79-55.72 10.39-0.74 0.14-1.25 0.01c-8.89-2.36-28.27-9.11-30.16-19.82a2.32 2.31 51 0 1 0.13-1.28q1.7-4.32 7.28-7.73 8.61-5.26 15.13-7.3c11.41-3.55 21.31-5.12 34.89-7.75q7.8-1.51 16.06-2.31 42.46-4.1 85.21-0.74 14.33 1.13 26.71 3.48c19.72 3.73 35.79 6.02 50.66 16.83q2.21 1.6 4.1 5.51a1.73 1.69 37.1 0 1 0.15 1c-1.7 10.81-21.41 17.87-30.01 20.04q-0.64 0.17-1.27 0.13z" fill="#ab0802"/> <path d="m122.79 787.83c-2.45 2.04-5.58 3.56-7.77 5.21-11.91 8.99-23.78 19.15-33.19 30.8q-0.3 0.37-0.81 0.52-3.41-2.14-4.79-3.33c-13.4-11.55-10.22-26.51-0.08-38.84 9.55-11.61 22.69-15.74 36.22-6.61q6.51 4.4 10.42 12.25z" fill="#fc6072"/> <path d="m161.85 843.22q-2.36-4.76-6.11-9.21-8.15-9.69-17.68-19.22a2.61 2.58-65.7 0 1-0.76-2.04c1.11-15.02 12.27-28.63 27.95-29.78 11.76-0.87 22 2.33 29.17 12.1 9.65 13.13 6.61 30.85-5.6 41.23-7.09 6.02-16.68 8.27-26.01 7.57a1.17 1.15-10.6 0 1-0.96-0.65z" fill="#fc6072"/> <path d="m805.33 834.15q-2.14 4.12-2.82 8.1-2.78 16.49 6.44 31.58 2.48 6.43 8.8 8.3a0.69 0.69 0 0 1-0.04 1.34l-1.43 0.33q-7.76-2.75-9.63-10.11a0.49 0.49 0 0 0-0.78-0.26q-4.77 3.93-7.62 8.76-25.98-1.5-50.23-6.82-12.8-2.8-20.76-5.66c-11.1-4-25.78-10.82-29.5-23.23a5.76 5.65-53.9 0 1-0.24-1.64l-0.11-32.88 0.04-7.47a1.03 1.01-22.8 0 1 0.3-0.72l0.81-0.8a0.3 0.3 0 0 1 0.42-0.01l3.25 3.07a0.96 0.37 69.2 0 1 0.08 0.09q3.77 4.95 8.34 7.5 7.81 4.35 19.77 8.68 5.78 2.09 14.22 3.81 3.52 0.72 14.49 2.82 23.27 4.47 46.2 5.22z" fill="#e22c0e"/> <path d="m921.16 815.48q-11.82 3.19-23.17 5.25-29.36 5.32-59.34 5.8-7.9-7.66-19.05-5.13-5.76 1.31-9.17 4.45-16.88-1.25-21.18-1.67-21.36-2.05-45.72-8.77 28.11-8.6 55.72-10.39 1.76-0.11 8.51-0.61 24.23-1.81 48.48-0.08 2.53 0.18 14.77 1.25 25.2 2.18 50.15 9.9z" fill="#fff"/> <path d="m966.39 807.96q-0.6 16.27-0.29 32.54c0.14 7.38-4.97 14.03-10.88 17.96q-6.9 4.59-8.51 5.25c-5.21 2.13-9.6 4.21-14.95 5.91q-18.52 5.88-38.09 8.72-15.92 2.31-31.95 3.47-0.86-0.22-1.15-0.65c-10.5-15.44-29.69-20.39-46.78-13.54a0.83 0.82 65.9 0 1-1.05-0.41c-4.91-10.05-5.81-22.14-0.75-32.42q12.33 0.89 24.69 0.39 4.26-0.17 6.65-0.02c8.63 0.56 13.33-0.2 25.77-1.08 17.83-1.26 34.2-4.52 52.67-8.53q8.24-1.79 12.6-3.29c8.52-2.94 17.77-6.4 24.27-12.17q3.28-2.91 6.24-5.36a0.81 0.8-21.9 0 1 1.32 0.56l0.19 2.67zm-33.55 25.103a8 5.73-83.4 0 0-6.6115 7.2884 8 5.73-83.4 0 0 4.7725 8.6056 8 5.73-83.4 0 0 6.6115-7.2884 8 5.73-83.4 0 0-4.7725-8.6056zm-43.039 11.491a8.39 8.05-56.5 0 0-11.344 2.5532 8.39 8.05-56.5 0 0 2.082 11.439 8.39 8.05-56.5 0 0 11.344-2.5532 8.39 8.05-56.5 0 0-2.082-11.439zm-55.451 18.806q0-0.01 0.1-0.25a1.71 1.57-16.1 0 1 0.28-0.46q2.08-2.4 2.48-3.69 1.74-5.59-1.73-8.89c-7.01-6.65-18.56 2.73-13.88 9.93q0.78 1.21 2.05 2.51 1.58 1.62 2.58 1.81a5.07 5.04-40 0 0 1.05 0.09l6.11-0.05a0.97 0.97 0 0 0 0.96-1z" fill="#e22c0e"/> <path d="m838.65 826.53q-7.5 0.14-15.15 0.22-3.87 0.05-6.82 2.44-3 2.43-4.69 5.6c-5.06 10.28-4.16 22.37 0.75 32.42a0.83 0.82 65.9 0 0 1.05 0.41c17.09-6.85 36.28-1.9 46.78 13.54q0.29 0.43 1.15 0.65-0.14 0.09-0.23 0.24a0.43 0.41-43.6 0 0-0.02 0.42c7.3 14.17 6.33 32.11-5.98 43.77q-12.56 11.91-30.2 10.02-18.95-2.04-27.98-19.2-8.82-16.74 0.88-33.76a1.38 1.37-31.9 0 0 0.18-0.75q-0.02-0.42-0.12-0.36 2.85-4.83 7.62-8.76a0.49 0.49 0 0 1 0.78 0.26q1.87 7.36 9.63 10.11 0.85 0.33 2.02 0.02a0.9 0.9 0 0 0 0.3-1.6l-6.6-4.89a0.7 0.7 0 0 1-0.14-0.14l-2.91-3.36q-9.22-15.09-6.44-31.58 0.68-3.98 2.82-8.1l5.1-8.3q3.41-3.14 9.17-4.45 11.15-2.53 19.05 5.13z" fill="#feca01"/> <ellipse transform="translate(931.92,841.01) rotate(-83.4)" rx="8" ry="5.73" fill="#ab0802"/> <ellipse transform="translate(120.39 848.6) rotate(-3.8)" rx="9.74" ry="9.54"/> <ellipse transform="translate(885.17,851.55) rotate(-56.5)" rx="8.39" ry="8.05" fill="#ab0802"/> <path d="m834.35 863.36a0.97 0.97 0 0 1-0.96 1l-6.11 0.05a5.07 5.04-40 0 1-1.05-0.09q-1-0.19-2.58-1.81-1.27-1.3-2.05-2.51c-4.68-7.2 6.87-16.58 13.88-9.93q3.47 3.3 1.73 8.89-0.4 1.29-2.48 3.69a1.71 1.57-16.1 0 0-0.28 0.46q-0.1 0.24-0.1 0.25z" fill="#ab0802"/> <path d="m308.7 849.09c15.58-0.39 30.91 0.88 45.68 5.49 7.66 2.39 17.69 8.15 20.78 15.82 3.81 9.44-0.32 18.68-8.35 24.42-11.98 8.58-28.28 11.3-42.32 12.67q-25.42 2.48-53.52 1.34c-2.85-0.12-5.94-0.52-7.47-3.09-1.5-2.53 0.72-5.4 3.05-6.23q2.68-0.95 6.21-0.94c18.99 0.08 40.39-0.57 59.72-3.86 7.83-1.33 17.52-3.77 24.27-8.43 4.16-2.87 6.88-8.24 2.69-12.49q-2.19-2.22-5.81-3.68c-10.1-4.06-19.38-4.95-32.64-6.13q-8.88-0.79-14.7-0.33 2.1-7.3 2.41-14.56z"/> <path d="m60.89 855.44q2.13-0.06 3.92-0.06c9.56-0.05 16.94 8.79 14.22 18.08-1.56 5.3-4.53 7.41-9.06 10.45q-4.93 0.41-6.96-0.03-8.8-1.89-11.31-9.68c-1.74-5.41-0.45-11.03 3.67-14.84q2.4-2.21 5.52-3.92z"/> <path d="m816.28 883.8 1.43-0.33a0.69 0.69 0 0 0 0.04-1.34q-6.32-1.87-8.8-8.3l2.91 3.36a0.7 0.7 0 0 0 0.14 0.14l6.6 4.89a0.9 0.9 0 0 1-0.3 1.6q-1.17 0.31-2.02-0.02z" fill="#e7ab00"/> </svg>